<svg width="32" height="32" viewBox="0 0 32 32" fill="none" xmlns="http://www.w3.org/2000/svg">
<rect width="32" height="32" rx="8" fill="url(#gradient0)"/>
<path d="M16 8C12.6863 8 10 10.6863 10 14C10 17.3137 12.6863 20 16 20C19.3137 20 22 17.3137 22 14C22 10.6863 19.3137 8 16 8Z" fill="white" fill-opacity="0.9"/>
<path d="M16 10C13.7909 10 12 11.7909 12 14C12 16.2091 13.7909 18 16 18C18.2091 18 20 16.2091 20 14C20 11.7909 18.2091 10 16 10Z" fill="#059669"/>
<path d="M16 12C14.8954 12 14 12.8954 14 14C14 15.1046 14.8954 16 16 16C17.1046 16 18 15.1046 18 14C18 12.8954 17.1046 12 16 12Z" fill="#10B981"/>
<path d="M16 22C13.7909 22 12 23.7909 12 26H14C14 24.8954 14.8954 24 16 24C17.1046 24 18 24.8954 18 26H20C20 23.7909 18.2091 22 16 22Z" fill="#059669"/>
<defs>
<linearGradient id="gradient0" x1="0" y1="0" x2="32" y2="32" gradientUnits="userSpaceOnUse">
<stop stop-color="#10B981"/>
<stop offset="1" stop-color="#059669"/>
</linearGradient>
</defs>
</svg>